<svg xmlns="http://www.w3.org/2000/svg" viewBox="0 0 175.86 175.86"><title>LandAgency-Logo2</title><g id="Isolation_Mode" data-name="Isolation Mode"><g id="_Group_" data-name="&lt;Group&gt;"><polygon points="156.66 88.23 150.58 112.59 150.58 122.28 145.67 122.28 145.67 112.59 139.59 88.23 144.5 88.23 148.17 102.79 151.75 88.23 156.66 88.23"/><path d="M90,2.07A87.93,87.93,0,1,1,2.07,90,88,88,0,0,1,90,2.07Zm0,170.69A82.76,82.76,0,1,0,7.24,90,82.85,82.85,0,0,0,90,172.76Z" transform="translate(-2.07 -2.07)"/><path d="M133.06,114.61v2.45a7.29,7.29,0,0,1-7.29,7.29,7.29,7.29,0,0,1-7.28-7.29V97.61a7.28,7.28,0,0,1,12.44-5.16,7.12,7.12,0,0,1,2.13,5.16V100h-4.85V97.61a2.43,2.43,0,0,0-.7-1.73,2.36,2.36,0,0,0-1.74-.71,2.3,2.3,0,0,0-1.72.71,2.39,2.39,0,0,0-.71,1.73v19.45a2.36,2.36,0,0,0,.71,1.72,2.33,2.33,0,0,0,1.72.7,2.39,2.39,0,0,0,2.44-2.42v-2.45Z" transform="translate(-2.07 -2.07)"/><path d="M133.06,72.14v5.09a4.83,4.83,0,0,1-4.82,4.83h-9.73V48h9.73a4.64,4.64,0,0,1,3.41,1.42,4.71,4.71,0,0,1,.69.87V53c-1.37,2.33-2.74,4.65-4.1,7v-5.3a1.83,1.83,0,0,0-.53-1.32,1.79,1.79,0,0,0-1.32-.53h-3.07v24.4h3.07a1.79,1.79,0,0,0,1.32-.53,1.83,1.83,0,0,0,.53-1.32V72.13Z" transform="translate(-2.07 -2.07)"/><polygon points="130.99 55.88 130.99 66.91 126.17 66.91 126.17 64.24 130.99 55.88"/><polygon points="115.8 70.69 115.8 73.33 107.8 77.95 107.8 75.31 115.8 70.69"/><polygon points="107.16 88.23 107.16 122.28 102.29 122.28 97.42 105.25 97.42 122.28 92.56 122.28 92.56 100.56 98.18 90.86 102.29 105.25 102.29 88.23 107.16 88.23"/><polygon points="107.16 77.95 107.16 79.99 102.29 79.99 97.42 62.96 97.42 79.99 92.56 79.99 92.56 45.93 96.42 45.93 97.42 45.93 102.29 62.96 102.29 45.93 107.16 45.93 107.16 49.23 107.16 77.95"/><polygon points="94.93 88.23 92.56 92.33 92.56 88.23 94.93 88.23"/><polygon points="87.94 101.61 101.23 78.6 101.68 80.17 101.81 80.63 103.36 80.63 89.85 104.04 89.85 125.08 156.66 125.08 156.66 129.39 19.21 129.39 19.21 125.08 24.02 125.08 38.6 125.08 86.02 125.08 86.02 117.41 86.02 104.04 80.07 93.74 83.4 93.74 87.94 101.61"/><path d="M81.12,50.95l6.67,31.11H83l-1.45-7.29-4.55,0-2.31,0L73.2,82.06H68.39l1.13-5.28,4.9-22.88L75.68,48h4.81Zm-.57,19-2.42-12.2h-.06l-2.44,12.2Z" transform="translate(-2.07 -2.07)"/><polygon points="83.32 117.41 83.32 122.28 68.71 122.28 68.71 88.23 79.85 88.23 83.32 88.23 83.32 93.1 80.07 93.1 73.58 93.1 73.58 102.83 80.87 102.83 80.87 107.7 73.58 107.7 73.58 117.41 83.32 117.41"/><polygon points="74.89 79.01 79.85 87.59 76.52 87.59 71.89 79.6 73.1 73.29 74.89 73.3 74.89 79.01"/><path d="M61.53,104.9v12.16a7.29,7.29,0,0,1-14.58,0V97.61a7,7,0,0,1,2.14-5.16,7.24,7.24,0,0,1,10.3,0,7,7,0,0,1,2.14,5.16H56.68a2.42,2.42,0,0,0-2.44-2.44,2.29,2.29,0,0,0-1.72.71,2.39,2.39,0,0,0-.7,1.73v19.45a2.35,2.35,0,0,0,.7,1.72,2.31,2.31,0,0,0,1.72.7,2.39,2.39,0,0,0,1.73-.7,2.32,2.32,0,0,0,.71-1.72v-7.29H54.24V104.9Z" transform="translate(-2.07 -2.07)"/><polygon points="59.46 75.12 59.46 79.99 44.88 79.99 44.88 45.93 49.75 45.93 49.75 64.13 49.75 75.12 59.46 75.12"/><polygon points="54.52 67.48 66.82 74.58 66.32 76.93 60.39 73.51 53.38 69.46 50.39 69.46 50.39 67.55 52.36 67.55 50.39 64.13 50.39 60.32 54.52 67.48"/><path d="M130.59,34.25,129.3,32,128,34.25Zm3,3.33L135,35.21h-2.75ZM86.16,41.27l2.55-1.49-2.55-1.46Zm7.7-4.47V23.71L90,17l-3.85,6.67V36.8L90,39Zm0,4.47V38.32l-2.55,1.46ZM52,34.25,50.72,32l-1.3,2.26ZM50.17,31l-4-6.86L47,23.7l3.68,6.38,1.16-2,.83.48L51.27,31l1.76,3,12.44,7.19V33.32H64.29v-1h1.18V27.15l-5.78-10,.83-.48,5.6,9.71L72,16.22l.84.48L70.33,21l-3.56,6.16v5.21H77.16L70.72,21.21l.84-.47,6.6,11.42L84.86,36V23.71L78.18,12.14l.84-.47,6.49,11.25,4-6.83-2.69-4.67.82-.48L90,15.14l2.42-4.2.82.48-2.69,4.67,4,6.83L101,11.67l.82.47L95.16,23.71V36l6.7-3.89,6.61-11.42.83.47-6.43,11.15h10.39V27.15L109.7,21l-2.48-4.28.82-.48,5.87,10.14,5.6-9.71.82.48-5.78,10v5.21h1.18v1h-1.18v7.95L127,34.08l1.75-3-1.44-2.48.82-.48,1.17,2L133,23.7l.83.48-4,6.86,1.85,3.21h3.86l3.5-6.07.82.48-3.22,5.59h3.95v1h-4.5l-1.83,3.16V52.65l10.47-6,4.77-8.28.84.48-4.6,8h10.46v1H145.4l-10.76,6.21-9.06,15.67h18.11l10.74-6.22L159.85,54l.84.48-5.24,9.06h9.11v1h-9.47l-10.46,6,12.27,7.09h11.24v1H157.26l5,8.6-.82.48-5.16-8.91-12.55-7.25h-19.1l-.63.36V68.62l8.86-15.34L133,53V38.37l-1.83-3.16h-3.5l-12.74,7.35-5,8.74V47.47l3.39-5.88V33.32H102.52l-7.36,4.24v4l3.33,5.77H96.28l-2.78-4.8-3.49-2-3.5,2-4.76,8.26-.6-2.8,3.71-6.43v-4l-7.35-4.24H66.77v8.27l7,12.18-.6,2.79-8.07-14L52.38,35.21H48.86L47,38.37v9H45.75v-9l-1.82-3.16H39.41v-1h3.95l-3.22-5.59.82-.48,3.5,6.07h3.86Zm-3.78,6.54,1.37-2.37H45Z" transform="translate(-2.07 -2.07)"/><path d="M33.38,90.3l7.29,34.05H35.85l-1.45-7.29-6.86,0-1.45,7.34H21.28L28.56,90.3Zm0,21.94L31,100h0l-2.45,12.21Z" transform="translate(-2.07 -2.07)"/><polygon points="33.2 44.54 44.24 50.91 44.24 52.42 43.31 51.88 32.56 45.67 21.73 45.67 21.73 44.71 32.2 44.71 27.6 36.74 28.43 36.26 33.2 44.54"/><polygon points="22.5 61.51 17.27 52.45 18.1 51.97 23.51 61.33 34.27 67.55 44.24 67.55 44.24 69.46 34.27 69.46 21.7 76.71 16.56 85.62 15.73 85.14 20.69 76.54 9.81 76.54 9.81 75.59 21.05 75.59 33.33 68.5 22.86 62.46 13.39 62.46 13.39 61.51 22.5 61.51"/></g><path d="M53.32,151.84v-12.6h5.41V141h-3.6v3.6h2.7v1.8h-2.7V150h3.6v1.8Z" transform="translate(-2.07 -2.07)"/><path d="M63.14,148.24v.91a.86.86,0,0,0,.26.64A.88.88,0,0,0,64,150a.88.88,0,0,0,.9-.9v-1.8a.89.89,0,0,0-.9-.9,2.7,2.7,0,0,1-2.71-2.71v-1.79a2.7,2.7,0,1,1,5.41,0v.9h-1.8v-.9a.88.88,0,0,0-.26-.64A.86.86,0,0,0,64,141a.9.9,0,0,0-.91.91v1.79a.9.9,0,0,0,.91.91,2.6,2.6,0,0,1,2,.9,2.63,2.63,0,0,1,.69,1.8v1.8a2.7,2.7,0,0,1-5.41,0v-.91Z" transform="translate(-2.07 -2.07)"/><path d="M69,139.24h5.4V141h-1.8v10.8H70.8V141H69Z" transform="translate(-2.07 -2.07)"/><path d="M75.24,150H77v1.8h-1.8Z" transform="translate(-2.07 -2.07)"/><path d="M82.84,140.21a3.74,3.74,0,0,1,6.38,2.65,3.66,3.66,0,0,1-.33,1.55l-4.36,9.67h4.69v2.5H81.74v-2.5l4.69-10.25a2.87,2.87,0,0,0,.29-1,1.22,1.22,0,0,0-.36-.89,1.19,1.19,0,0,0-.88-.37,1.25,1.25,0,0,0-1.25,1.25H81.74A3.62,3.62,0,0,1,82.84,140.21Z" transform="translate(-2.07 -2.07)"/><path d="M94.5,140.21a3.74,3.74,0,0,1,6.38,2.65v10a3.74,3.74,0,0,1-7.48,0v-10A3.62,3.62,0,0,1,94.5,140.21ZM98,142a1.19,1.19,0,0,0-.88-.37,1.25,1.25,0,0,0-1.25,1.25v10a1.19,1.19,0,0,0,.37.88,1.22,1.22,0,0,0,.89.36,1.23,1.23,0,0,0,1.24-1.24v-10A1.22,1.22,0,0,0,98,142Z" transform="translate(-2.07 -2.07)"/><path d="M108,139.11h2.5v17.46H108v-15l-2.48,2.5v-2.5Z" transform="translate(-2.07 -2.07)"/><path d="M117.83,140.21a3.74,3.74,0,0,1,6.38,2.65v1.24h-2.5v-1.24a1.22,1.22,0,0,0-.36-.89,1.19,1.19,0,0,0-.88-.37,1.25,1.25,0,0,0-1.25,1.25v2.72a3.81,3.81,0,0,1,1.25-.23,3.75,3.75,0,0,1,3.74,3.75v3.74a3.74,3.74,0,0,1-7.48,0v-10A3.62,3.62,0,0,1,117.83,140.21Zm3.53,8a1.19,1.19,0,0,0-.88-.37,1.25,1.25,0,0,0-1.25,1.25v3.74a1.19,1.19,0,0,0,.37.88,1.22,1.22,0,0,0,.89.36,1.23,1.23,0,0,0,1.24-1.24V149.1A1.22,1.22,0,0,0,121.35,148.21Z" transform="translate(-2.07 -2.07)"/><rect x="51.1" y="151.98" width="23.89" height="2.5"/></g></svg>