<?xml version="1.0" encoding="utf-8"?>
<!-- Generator: Adobe Illustrator 21.0.2, SVG Export Plug-In . SVG Version: 6.00 Build 0)  -->
<svg version="1.1" id="Layer_1" xmlns="http://www.w3.org/2000/svg" xmlns:xlink="http://www.w3.org/1999/xlink" x="0px" y="0px"
	 viewBox="0 0 244.8 162" style="enable-background:new 0 0 244.8 162;" xml:space="preserve">
<g>
	<path d="M57.8,74.4V20.5h7.7v46.2h15.4v7.7C80.9,74.4,57.8,74.4,57.8,74.4z"/>
	<path d="M103.3,20.5h7.6l11.5,53.9h-7.6l-2.3-11.5l-10.9-0.1l-2.3,11.6h-7.6L103.3,20.5z M107,35.9l-3.9,19.3h7.8L107,35.9
		L107,35.9z"/>
	<path d="M131.1,20.5h7.7l7.7,27v-27h7.7v53.9h-7.7l-7.7-27v27h-7.7V20.5z"/>
	<path d="M168.5,20.5h15.4c2.1,0,3.9,0.7,5.4,2.2s2.2,3.3,2.2,5.5v38.6c0,2.1-0.7,3.9-2.2,5.4s-3.3,2.2-5.4,2.2h-15.4V20.5z
		 M176.1,28.2v38.6h4.8c0.8,0,1.5-0.3,2.1-0.8c0.6-0.6,0.8-1.3,0.8-2.1V31.1c0-0.8-0.3-1.5-0.8-2.1c-0.6-0.6-1.3-0.8-2.1-0.8H176.1z
		"/>
	<path d="M27.6,87.5h7.6l11.5,53.9h-7.6l-2.3-11.5l-10.9-0.1l-2.3,11.6H16L27.6,87.5z M31.4,102.9l-3.9,19.3h7.8L31.4,102.9
		L31.4,102.9z"/>
	<path d="M61.2,90.9c2.3-2.3,5-3.4,8.2-3.4c3.2,0,5.9,1.1,8.2,3.4c2.3,2.3,3.4,5,3.4,8.2h-7.7c0-1.1-0.4-2-1.1-2.7
		c-0.8-0.8-1.7-1.1-2.7-1.1c-1.1,0-2,0.4-2.7,1.1c-0.7,0.8-1.1,1.7-1.1,2.7v30.8c0,1.1,0.4,2,1.1,2.7s1.6,1.1,2.7,1.1s2-0.4,2.7-1.1
		c0.8-0.7,1.1-1.6,1.1-2.7v-11.5h-3.9v-7.7h11.5v19.2c0,3.2-1.1,5.9-3.4,8.2s-5,3.4-8.2,3.4s-5.9-1.1-8.2-3.4
		c-2.3-2.3-3.4-5-3.4-8.2V99.1C57.8,95.9,58.9,93.2,61.2,90.9z"/>
	<path d="M95.5,141.4V87.5h23.1v7.7h-15.4v15.4h11.5v7.7h-11.5v15.4h15.4v7.7H95.5z"/>
	<path d="M131.1,87.5h7.7l7.7,27v-27h7.7v53.9h-7.7l-7.7-27v27h-7.7V87.5z"/>
	<path d="M171.8,90.9c2.3-2.3,5-3.4,8.2-3.4s5.9,1.1,8.2,3.4s3.4,5,3.4,8.2v3.8h-7.7v-3.8c0-1.1-0.4-2-1.1-2.7
		c-0.8-0.8-1.7-1.1-2.7-1.1c-1.1,0-2,0.4-2.7,1.1c-0.7,0.8-1.1,1.7-1.1,2.7v30.8c0,1.1,0.4,2,1.1,2.7c0.7,0.7,1.6,1.1,2.7,1.1
		c1.1,0,2-0.4,2.7-1.1c0.8-0.7,1.1-1.6,1.1-2.7V126h7.7v3.9c0,3.2-1.1,5.9-3.4,8.2c-2.3,2.3-5,3.4-8.2,3.4s-5.9-1.1-8.2-3.4
		c-2.3-2.3-3.4-5-3.4-8.2V99.1C168.5,95.9,169.6,93.2,171.8,90.9z"/>
	<path d="M201.8,87.5h7.8l5.8,23l5.7-23h7.8l-9.6,38.6v15.4h-7.8v-15.4L201.8,87.5z"/>
</g>
</svg>
