<?xml version="1.0" encoding="utf-8"?>
<!-- Generator: Adobe Illustrator 21.0.2, SVG Export Plug-In . SVG Version: 6.00 Build 0)  -->
<svg version="1.1" id="Layer_1" xmlns="http://www.w3.org/2000/svg" xmlns:xlink="http://www.w3.org/1999/xlink" x="0px" y="0px"
	 viewBox="0 0 175.8 175.8" style="enable-background:new 0 0 175.8 175.8;" xml:space="preserve">
<style type="text/css">
	.st0{fill:#010101;}
	.st1{font-family:'OSP-DIN';}
	.st2{font-size:18px;}
	.st3{letter-spacing:1;}
	.st4{font-size:24.94px;}
	.st5{fill:none;stroke:#000000;stroke-width:2.5;stroke-miterlimit:10;}
</style>
<title>LandAgency-Logo</title>
<g id="_Group_">
	<polygon class="st0" points="156.6,88.2 150.5,112.6 150.5,122.2 145.6,122.2 145.6,112.6 139.6,88.2 144.5,88.2 148.1,102.8 
		151.7,88.2 	"/>
	<path class="st0" d="M87.9,0c48.5,0,87.9,39.4,87.9,87.9s-39.4,87.9-87.9,87.9S0,136.4,0,87.9c0,0,0,0,0,0
		C0.1,39.4,39.4,0.1,87.9,0z M87.9,170.7c45.7,0,82.8-37.1,82.8-82.8S133.6,5.1,87.9,5.1S5.1,42.2,5.1,87.9c0,0,0,0,0,0
		C5.2,133.6,42.2,170.6,87.9,170.7z"/>
	<path class="st0" d="M131,112.5v2.4c0,1.9-0.7,3.8-2.1,5.2c-1.4,1.4-3.3,2.1-5.2,2.1c-1.9,0-3.8-0.7-5.2-2.1
		c-1.4-1.3-2.2-3.2-2.1-5.2V95.5c0-1.9,0.7-3.8,2.1-5.2c2.8-2.9,7.4-2.9,10.3-0.1c0.1,0,0.1,0.1,0.1,0.1c1.4,1.4,2.1,3.3,2.1,5.2
		v2.4h-4.8v-2.4c0-0.6-0.2-1.3-0.7-1.7c-0.4-0.5-1.1-0.7-1.7-0.7c-0.6,0-1.3,0.2-1.7,0.7c-0.4,0.5-0.7,1.1-0.7,1.7v19.4
		c0,0.6,0.2,1.3,0.7,1.7c0.5,0.4,1.1,0.7,1.7,0.7c0.6,0,1.3-0.2,1.7-0.7c0.5-0.4,0.7-1.1,0.7-1.7v-2.4H131z"/>
	<path class="st0" d="M131,70v5.1c0,2.6-2.1,4.8-4.8,4.8c0,0,0,0,0,0h-9.7V45.8h9.7c1.3,0,2.5,0.5,3.4,1.4c0.3,0.3,0.5,0.6,0.7,0.9
		v2.7c-1.4,2.3-2.7,4.7-4.1,7v-5.3c0-0.5-0.2-0.9-0.5-1.3c-0.3-0.3-0.8-0.5-1.3-0.5h-3.1V75h3.1c0.5,0,0.9-0.2,1.3-0.5
		c0.3-0.4,0.5-0.8,0.5-1.3v-3.3C127.7,70,129.3,70,131,70z"/>
	<polygon class="st0" points="131,55.8 131,66.9 126.1,66.9 126.1,64.2 	"/>
	<polygon class="st0" points="115.8,70.7 115.8,73.3 107.8,77.9 107.8,75.3 	"/>
	<polygon class="st0" points="107.1,88.2 107.1,122.2 102.3,122.2 97.4,105.2 97.4,122.2 92.5,122.2 92.5,100.5 98.1,90.8 
		102.3,105.2 102.3,88.2 	"/>
	<polygon class="st0" points="107.1,77.9 107.1,80 102.3,80 97.4,62.9 97.4,80 92.5,80 92.5,45.9 96.4,45.9 97.4,45.9 102.3,62.9 
		102.3,45.9 107.1,45.9 107.1,49.2 	"/>
	<polygon class="st0" points="94.9,88.2 92.5,92.3 92.5,88.2 	"/>
	<polygon class="st0" points="86,104 80,93.7 83.4,93.7 87.9,101.6 101.2,78.6 101.6,80.1 101.8,80.6 103.3,80.6 89.8,104 89.8,125 
		156.6,125 156.6,129.4 19.2,129.4 19.2,125 24,125 38.6,125 86,125 86,117.4 	"/>
	<path class="st0" d="M79,48.8l6.7,31.1h-4.8l-1.4-7.3h-6.9l-1.4,7.3h-4.8l1.1-5.3l4.9-22.9l1.3-5.9h4.8L79,48.8z M78.4,67.8
		L76,55.6h-0.1l-2.4,12.2H78.4z"/>
	<polygon class="st0" points="83.3,117.4 83.3,122.2 68.7,122.2 68.7,88.2 79.8,88.2 83.3,88.2 83.3,93.1 80,93.1 73.5,93.1 
		73.5,102.8 80.8,102.8 80.8,107.7 73.5,107.7 73.5,117.4 	"/>
	<polygon class="st0" points="74.9,79 79.8,87.6 76.5,87.6 71.9,79.6 73.1,73.3 74.9,73.3 	"/>
	<path class="st0" d="M59.4,102.8V115c0,1.9-0.7,3.8-2.1,5.2c-1.3,1.4-3.2,2.2-5.2,2.1c-1.9,0-3.8-0.7-5.1-2.1
		c-1.4-1.4-2.1-3.3-2.1-5.2V95.5c0-1.9,0.7-3.8,2.1-5.2c2.7-2.8,7.2-2.9,10.1-0.2c0.1,0.1,0.1,0.1,0.2,0.2c1.4,1.4,2.1,3.3,2.1,5.2
		h-4.8c0-0.6-0.2-1.3-0.7-1.7c-0.5-0.4-1.1-0.7-1.7-0.7c-0.6,0-1.3,0.2-1.7,0.7c-0.5,0.4-0.7,1.1-0.7,1.7V115c0,0.6,0.2,1.3,0.7,1.7
		c0.4,0.5,1.1,0.7,1.7,0.7c0.6,0,1.3-0.2,1.7-0.7c0.4-0.5,0.7-1.1,0.7-1.7v-7.3h-2.4v-4.9L59.4,102.8z"/>
	<polygon class="st0" points="59.4,75.1 59.4,80 44.8,80 44.8,45.9 49.7,45.9 49.7,64.1 49.7,75.1 	"/>
	<polygon class="st0" points="54.5,67.4 66.8,74.5 66.3,76.9 60.4,73.5 53.3,69.4 50.4,69.4 50.4,67.5 52.3,67.5 50.4,64.1 
		50.4,60.3 	"/>
	<path class="st0" d="M131.5,35.5l1.4-2.4h-2.8L131.5,35.5z M128.5,32.1l-1.3-2.3l-1.3,2.3L128.5,32.1z M84.1,39.2l2.5-1.5l-2.5-1.5
		V39.2z M91.8,34.7V21.6l-3.9-6.7l-3.8,6.7v13.1l3.8,2.2L91.8,34.7z M91.8,39.2v-3l-2.5,1.5L91.8,39.2z M44.3,35.5l1.4-2.4h-2.8
		L44.3,35.5z M47.3,32.1h2.6l-1.3-2.2L47.3,32.1z M49.2,28.9l1.8,3l12.4,7.2v-8h-1.2v-1h1.2v-5.2l-5.8-10l0.8-0.5l5.6,9.7l5.9-10
		l0.8,0.5l-2.5,4.3l-3.6,6.2v5.2H75l-6.4-11.1l0.8-0.5L76,30.1l6.7,3.9V21.6L76,10l0.8-0.5l6.5,11.2l3.9-6.8l-2.7-4.7l0.8-0.5
		l2.4,4.2l2.4-4.2l0.8,0.5l-2.7,4.7l3.9,6.8l6.5-11.2l0.8,0.5l-6.7,11.6v12.3l6.7-3.9l6.6-11.4l0.8,0.5l-6.4,11.1h10.4V25l-3.6-6.2
		l-2.5-4.3l0.8-0.5l5.9,10.1l5.6-9.7l0.8,0.5l-5.8,10v5.2h1.2v1H112v8l12.4-7.2l1.8-3l-1.4-2.5l0.8-0.5l1.2,2l3.7-6.4l0.8,0.5
		l-4,6.9l1.8,3.2h3.9l3.5-6.1l0.8,0.5l-3.2,5.6h3.9v1h-4.5l-1.8,3.2v14.3l10.5-6l4.8-8.3l0.8,0.5l-4.6,8h10.5v1h-10.8L132.1,52
		L123,67.7h18.1l10.7-6.2l5.4-9.4l0.8,0.5l-5.2,9.1h9.1v1h-9.5l-10.5,6l12.3,7.1h11.2v1h-10.9l5,8.6l-0.8,0.5l-5.2-8.9l-12.6-7.3
		h-19.1l-0.6,0.4v-3.3l8.9-15.3l0.8-0.6V36.3l-1.8-3.2h-3.5l-12.7,7.4l-5,8.7v-3.8l3.4-5.9v-8.3h-10.7l-7.4,4.2v4l3.3,5.8h-2.2
		l-2.8-4.8l-3.5-2l-3.5,2l-4.8,8.3L79,45.9l3.7-6.4v-4l-7.3-4.2H64.7v8.3l7,12.2l-0.6,2.8l-8.1-14l-12.7-7.4h-3.5l-1.9,3.1v9h-1.3
		v-9l-1.8-3.2h-4.5v-1h3.9L38,26.5l0.8-0.5l3.5,6.1h3.9l1.8-3.2L44,22l0.8-0.5l3.7,6.4l1.2-2l0.8,0.5L49.2,28.9z"/>
	<path class="st0" d="M31.3,88.2l7.3,34.1h-4.8l-1.5-7.3l-6.9-0.1l-1.5,7.3h-4.8l7.3-34.1L31.3,88.2L31.3,88.2z M31.3,110.1
		l-2.4-12.2l0,0l-2.5,12.2L31.3,110.1z"/>
	<polygon class="st0" points="33.2,44.5 44.2,50.9 44.2,52.4 43.3,51.8 32.5,45.6 21.7,45.6 21.7,44.7 32.2,44.7 27.6,36.7 
		28.4,36.2 	"/>
	<polygon class="st0" points="23.5,61.3 34.2,67.5 44.2,67.5 44.2,69.4 34.2,69.4 21.7,76.7 16.5,85.6 15.7,85.1 20.7,76.5 
		9.8,76.5 9.8,75.6 21,75.6 33.3,68.5 22.8,62.4 13.4,62.4 13.4,61.5 22.5,61.5 17.2,52.4 18.1,51.9 	"/>
</g>
<text transform="matrix(1 0 0 1 49.53 149.74)" class="st1 st2 st3">ES</text>
<text transform="matrix(1 0 0 1 64.5 149.74)" class="st1 st2">T</text>
<text transform="matrix(1 0 0 1 69.13 149.74)" class="st1 st2">.</text>
<text transform="matrix(1 0 0 1 78.79 154.47)" class="st1 st4 st3">2016</text>
<line class="st5" x1="50.4" y1="153.2" x2="71.8" y2="153.2"/>
</svg>
